<svg xmlns="http://www.w3.org/2000/svg" width="54.594" height="54.594" viewBox="0 0 54.594 54.594">
  <path id="aabc-website-icon" class="cls-1" d="M115.735,668.522a0.859,0.859,0,0,0,.908-0.91v-5.095l0.273,0.273a0.877,0.877,0,0,0,1.272,0l2.727-2.73a0.88,0.88,0,0,0,0-1.274l-10-10.009a0.877,0.877,0,0,0-1.272,0l-10,10.009a0.88,0.88,0,0,0,0,1.274l2.727,2.73a0.877,0.877,0,0,0,1.272,0l0.273-.273v5.1a0.858,0.858,0,0,0,.909.909h10.907Zm-12.725-7.643-1.454-1.456,8.725-8.735,8.726,8.735-1.455,1.456-1.181-1.183-5.454-5.459a0.5,0.5,0,0,0-.454-0.273h-0.182a0.825,0.825,0,0,0-.636.273l-5.453,5.459Zm7.271-4.732,4.545,4.55v6h-9.089v-6ZM137.457,689a1.084,1.084,0,0,0-.818-0.455h-1.818V655.783a2.679,2.679,0,0,0-2.726-2.729h-1.818V640.315a0.859,0.859,0,0,0-.909-0.91H91.195a0.859,0.859,0,0,0-.909.91v12.739H88.468a2.68,2.68,0,0,0-2.727,2.73v32.757H83.923a0.885,0.885,0,0,0-.818.364,1.061,1.061,0,0,0,0,.909l1.818,3.64a0.873,0.873,0,0,0,.818.546h49.08a0.954,0.954,0,0,0,.818-0.455l1.818-3.64A0.827,0.827,0,0,0,137.457,689ZM132.1,654.874a0.858,0.858,0,0,1,.908.909V688.54h-2.726V654.874H132.1ZM92.1,688.54V646.684h36.356v41.857H92.1Zm0-47.315h36.356v3.639H92.1v-3.639Zm-4.544,14.558a0.858,0.858,0,0,1,.909-0.909h1.818V688.54H87.559V655.783Zm46.717,36.4H86.287l-0.909-1.82h49.807ZM95.739,642.135a0.91,0.91,0,1,0,.909.91A0.859,0.859,0,0,0,95.739,642.135Zm3.635,0a0.91,0.91,0,1,0,.909.91A0.859,0.859,0,0,0,99.375,642.135Zm3.636,0a0.91,0.91,0,1,0,.909.91A0.859,0.859,0,0,0,103.01,642.135ZM102.1,671.252H96.648a0.859,0.859,0,0,0-.909.91v5.459a0.859,0.859,0,0,0,.909.91H102.1a0.859,0.859,0,0,0,.909-0.91v-5.459A0.859,0.859,0,0,0,102.1,671.252Zm-0.909,5.46H97.557v-3.64h3.635v3.64Zm22.723-4.55H112.1a0.91,0.91,0,0,0,0,1.82h11.816A0.91,0.91,0,0,0,123.915,672.162Zm-15.452,0h-2.726a0.91,0.91,0,0,0,0,1.82h2.726A0.91,0.91,0,0,0,108.463,672.162Zm15.452,3.64h-3.636a0.91,0.91,0,0,0,0,1.819h3.636A0.91,0.91,0,0,0,123.915,675.8Zm-6.363.91a0.859,0.859,0,0,0-.909-0.91H105.737a0.91,0.91,0,0,0,0,1.819h10.906A0.858,0.858,0,0,0,117.552,676.712ZM102.1,680.351H96.648a0.859,0.859,0,0,0-.909.91v5.46a0.859,0.859,0,0,0,.909.91H102.1a0.859,0.859,0,0,0,.909-0.91v-5.46A0.859,0.859,0,0,0,102.1,680.351Zm-0.909,5.46H97.557v-3.64h3.635v3.64Zm22.723-4.55H112.1a0.91,0.91,0,0,0,0,1.82h11.816A0.91,0.91,0,0,0,123.915,681.261Zm-18.178,0a0.91,0.91,0,0,0,0,1.82h2.726a0.91,0.91,0,0,0,0-1.82h-2.726Zm18.178,3.64h-3.636a0.91,0.91,0,0,0,0,1.82h3.636A0.91,0.91,0,0,0,123.915,684.9Zm-7.272,0H105.737a0.91,0.91,0,0,0,0,1.82h10.906A0.91,0.91,0,0,0,116.643,684.9Z" transform="translate(-83 -639.406)"/>
</svg>
