<svg xmlns="http://www.w3.org/2000/svg" width="83" height="39" viewBox="0 0 83 39">
  <path id="dashboard" class="cls-1" d="M143.187,186a8.786,8.786,0,0,0-8.812,8.739,8.632,8.632,0,0,0,1.432,4.766l-9.521,9.441a8.851,8.851,0,0,0-9.762.1l-9.618-9.54a8.628,8.628,0,0,0,1.431-4.765,8.812,8.812,0,0,0-17.624,0,8.636,8.636,0,0,0,1.431,4.765l-9.52,9.442a8.721,8.721,0,1,0,4.007,7.32A8.63,8.63,0,0,0,85.2,211.5l9.52-9.442a8.842,8.842,0,0,0,9.612,0L114,211.651a8.628,8.628,0,0,0-1.333,4.614,8.812,8.812,0,0,0,17.623,0,8.632,8.632,0,0,0-1.43-4.764l9.52-9.442A8.763,8.763,0,1,0,143.187,186ZM77.819,221.392a5.127,5.127,0,1,1,5.17-5.126A5.154,5.154,0,0,1,77.819,221.392Zm21.706-21.526a5.127,5.127,0,1,1,5.17-5.127A5.154,5.154,0,0,1,99.525,199.866Zm21.955,21.526a5.127,5.127,0,1,1,5.17-5.127A5.154,5.154,0,0,1,121.48,221.392Zm21.707-21.526a5.127,5.127,0,1,1,5.17-5.127A5.155,5.155,0,0,1,143.187,199.866ZM97.661,208.19a1.831,1.831,0,0,0-2.576,0l-3.7,3.673a1.8,1.8,0,0,0,0,2.554,1.832,1.832,0,0,0,2.575,0l3.7-3.673A1.8,1.8,0,0,0,97.661,208.19Zm31.963-11.539a1.832,1.832,0,0,0-2.576,0l-3.7,3.673a1.794,1.794,0,0,0,0,2.554,1.831,1.831,0,0,0,2.575,0l3.7-3.673A1.8,1.8,0,0,0,129.624,196.651Z" transform="translate(-69 -186)"/>
</svg>
