<svg xmlns="http://www.w3.org/2000/svg" width="48.282" height="44.312" viewBox="0 0 48.282 44.312">
  <path id="headphones" class="cls-1" d="M133.947,526.294a5.029,5.029,0,0,0-.631-1.01,23.82,23.82,0,0,0-1.578-17.724A24.15,24.15,0,0,0,93.3,501.5a23.76,23.76,0,0,0-6.018,23.782,5.094,5.094,0,0,0-.63,1.01,5,5,0,0,0-.176,3.872l1.769,4.847a5.116,5.116,0,0,0,6.532,3.036l1.664-.6a4,4,0,0,0,3.006,1.371,4.016,4.016,0,0,0,1.355-.238,3.935,3.935,0,0,0,2.244-2.036,3.89,3.89,0,0,0,.137-3.014L98.9,521.8a3.924,3.924,0,0,0-2.05-2.228,3.967,3.967,0,0,0-3.036-.136,4.018,4.018,0,0,0-1.026.547q-0.073-.795-0.073-1.6A17.28,17.28,0,0,1,95.952,508.3l1.992,1.43a2.628,2.628,0,0,0,3.393-.262,12.734,12.734,0,0,1,17.924,0,2.627,2.627,0,0,0,3.393.263l1.991-1.429a17.273,17.273,0,0,1,3.235,10.08q0,0.807-.073,1.6a4.025,4.025,0,0,0-1.024-.546,3.969,3.969,0,0,0-3.037.136A3.923,3.923,0,0,0,121.7,521.8l-2.233,6.119a1.123,1.123,0,0,0,.679,1.441,1.136,1.136,0,0,0,1.452-.674l2.233-6.12a1.7,1.7,0,0,1,3.2,1.153l-0.5,1.379-3.777,10.352a1.684,1.684,0,0,1-.88.956,1.708,1.708,0,0,1-2.266-.815,1.671,1.671,0,0,1-.059-1.294,1.123,1.123,0,0,0-.679-1.441,1.135,1.135,0,0,0-1.452.675,3.89,3.89,0,0,0,.137,3.014,3.938,3.938,0,0,0,2.244,2.036,3.977,3.977,0,0,0,3.036-.137,3.956,3.956,0,0,0,1.324-1l1.665,0.6a5.116,5.116,0,0,0,6.532-3.036l1.768-4.847A5,5,0,0,0,133.947,526.294Zm-40.325-3.867a1.691,1.691,0,0,1,.963-0.874,1.7,1.7,0,0,1,1.3.059,1.684,1.684,0,0,1,.88.956l4.28,11.731a1.671,1.671,0,0,1-.059,1.294,1.708,1.708,0,0,1-3.146-.141l-4.28-11.731A1.671,1.671,0,0,1,93.622,522.427Zm1.8,12.994L94,535.932a2.839,2.839,0,0,1-3.629-1.686L88.6,529.4a2.808,2.808,0,0,1,1.7-3.6l1.421-.511Zm25.9-27.513a0.364,0.364,0,0,1-.464-0.032,15.011,15.011,0,0,0-21.126,0,0.364,0.364,0,0,1-.464.031l-1.889-1.356a17.64,17.64,0,0,1,25.833,0ZM110.3,498.673a19.8,19.8,0,0,0-19.85,19.71,19.572,19.572,0,0,0,.582,4.758l-1.5.539c-0.107.039-.212,0.082-0.316,0.127A21.528,21.528,0,0,1,94.9,503.094a21.858,21.858,0,0,1,34.819,5.487,21.266,21.266,0,0,1,2.353,9.8,21.488,21.488,0,0,1-.692,5.424c-0.1-.045-0.207-0.088-0.314-0.126l-1.5-.54a19.557,19.557,0,0,0,.583-4.758A19.8,19.8,0,0,0,110.3,498.673ZM131.992,529.4l-1.768,4.847a2.842,2.842,0,0,1-3.629,1.687l-1.421-.511,3.464-9.492q0.132-.318.252-0.639l1.4,0.5a2.806,2.806,0,0,1,1.6,1.452A2.775,2.775,0,0,1,131.992,529.4ZM110.3,513.849a1.125,1.125,0,1,0,1.133,1.125A1.129,1.129,0,0,0,110.3,513.849Zm-3.664,0a1.125,1.125,0,1,0,1.133,1.125A1.13,1.13,0,0,0,106.634,513.849Zm7.327,0a1.125,1.125,0,1,0,1.133,1.125A1.129,1.129,0,0,0,113.961,513.849Z" transform="translate(-86.156 -494.5)"/>
</svg>
