<svg xmlns="http://www.w3.org/2000/svg" width="47.469" height="37.969" viewBox="0 0 47.469 37.969">
  <path id="music-library" class="cls-1" d="M90.912,328.322h2.374v31.649H90.912V328.322Zm37.189,0h2.373v31.649H128.1V328.322Zm3.956,3.164h2.374v25.32h-2.374v-25.32Zm-45.1,0H89.33v25.32H86.956v-25.32Zm7.912,31.65h31.65V325.157H94.869v37.979Zm7.517-14.242a5.349,5.349,0,0,1,3.561,1.329V334.651a0.791,0.791,0,0,1,.668-0.781l15.033-2.373a0.792,0.792,0,0,1,.915.781v16.616a5.159,5.159,0,1,1-5.143-4.748,5.352,5.352,0,0,1,3.56,1.329v-7.524l-13.45,2.123v13.648c0,0.01-.006.019-0.007,0.03A5.152,5.152,0,1,1,102.385,348.894Z" transform="translate(-86.969 -325.156)"/>
</svg>
