<svg xmlns="http://www.w3.org/2000/svg" xmlns:xlink="http://www.w3.org/1999/xlink" preserveAspectRatio="xMidYMid" width="24.72" height="23.938" viewBox="0 0 24.72 23.938">
  <path d="M23.585,12.330 C23.585,12.330 24.107,16.531 22.086,18.042 C21.657,12.982 20.158,8.920 18.338,8.838 C14.028,10.944 9.566,10.556 9.566,10.556 C9.566,10.556 9.022,11.111 11.806,12.220 C9.182,12.524 5.917,9.114 5.917,9.114 C5.917,9.114 2.062,11.720 3.668,18.873 C3.614,20.093 -5.542,4.844 5.221,4.068 C4.609,3.834 2.490,4.013 2.757,3.126 C3.293,3.513 5.595,3.458 5.595,3.458 C5.595,3.458 4.819,1.185 5.649,1.074 C5.649,2.377 6.345,2.350 6.345,2.350 C6.345,2.350 8.379,-0.727 11.645,0.132 C9.851,1.019 10.949,1.408 10.949,1.408 C10.949,1.408 21.710,-0.867 24.656,12.329 C25.030,13.550 23.585,12.330 23.585,12.330 ZM8.455,21.785 C9.131,21.203 10.685,19.362 12.645,21.212 C14.668,19.153 16.274,21.067 16.966,21.659 C19.495,22.866 19.616,21.389 19.676,20.994 C21.583,24.549 15.499,23.738 14.617,23.738 C14.005,23.738 13.259,23.463 12.851,23.291 C12.744,23.343 11.644,23.863 10.805,23.863 C9.921,23.863 3.837,24.675 5.745,21.119 C5.805,21.514 5.925,22.990 8.455,21.785 Z" class="cls-1"/>
</svg>
