<svg xmlns="http://www.w3.org/2000/svg" xmlns:xlink="http://www.w3.org/1999/xlink" preserveAspectRatio="xMidYMid" width="25.62" height="19.531" viewBox="0 0 25.62 19.531">
  <path d="M19.226,10.814 C20.589,9.891 22.244,8.791 24.191,7.513 C24.734,7.153 25.210,6.751 25.620,6.307 L25.620,17.013 L19.226,10.814 ZM23.176,6.030 C20.863,7.586 19.118,8.762 17.933,9.560 C17.282,9.998 16.797,10.325 16.487,10.534 C16.440,10.566 16.369,10.616 16.273,10.682 C16.170,10.754 16.040,10.844 15.879,10.957 C15.570,11.174 15.312,11.350 15.107,11.484 C14.902,11.618 14.654,11.768 14.364,11.934 C14.073,12.100 13.799,12.226 13.542,12.308 C13.285,12.392 13.046,12.433 12.827,12.433 L12.813,12.433 L12.799,12.433 C12.579,12.433 12.341,12.392 12.084,12.308 C11.827,12.226 11.552,12.100 11.262,11.934 C10.971,11.768 10.723,11.618 10.518,11.484 C10.314,11.350 10.056,11.174 9.747,10.957 C9.586,10.844 9.456,10.754 9.352,10.682 C9.257,10.616 9.185,10.566 9.139,10.534 C8.740,10.262 8.257,9.934 7.696,9.556 C7.039,9.111 6.274,8.596 5.394,8.005 C3.764,6.910 2.787,6.252 2.464,6.030 C1.873,5.642 1.315,5.109 0.791,4.429 C0.267,3.750 0.005,3.120 0.005,2.538 C0.005,1.817 0.203,1.216 0.598,0.736 C0.994,0.256 1.558,0.015 2.292,0.015 L23.333,0.015 C23.952,0.015 24.488,0.232 24.941,0.667 C25.394,1.101 25.620,1.623 25.620,2.233 C25.620,2.963 25.387,3.661 24.920,4.326 C24.453,4.990 23.872,5.559 23.176,6.030 ZM1.449,7.513 C3.473,8.847 5.122,9.945 6.401,10.811 L0.005,17.013 L0.005,6.307 C0.424,6.760 0.906,7.162 1.449,7.513 ZM8.552,12.294 C9.096,12.682 9.536,12.985 9.875,13.202 C10.213,13.419 10.663,13.641 11.226,13.867 C11.788,14.094 12.312,14.207 12.798,14.207 L12.812,14.207 L12.826,14.207 C13.312,14.207 13.837,14.094 14.399,13.867 C14.961,13.641 15.411,13.419 15.750,13.202 C16.088,12.985 16.529,12.682 17.072,12.294 C17.231,12.182 17.400,12.065 17.575,11.944 L24.832,18.981 C24.408,19.345 23.908,19.529 23.333,19.529 L2.292,19.529 C1.716,19.529 1.217,19.345 0.793,18.981 L8.051,11.942 C8.233,12.069 8.401,12.187 8.552,12.294 Z" class="cls-1"/>
</svg>
