<svg xmlns="http://www.w3.org/2000/svg" width="496" height="416" viewBox="0 0 496 416">
  <path class="cls-1" d="M456,0H40A40.045,40.045,0,0,0,0,40V328a40.045,40.045,0,0,0,40,40H144v32H112v16H384V400H352V368H456a40.045,40.045,0,0,0,40-40V40A40.045,40.045,0,0,0,456,0ZM336,400H160V368H336v32Zm144-72a24.029,24.029,0,0,1-24,24H40a24.029,24.029,0,0,1-24-24v-8H480v8Zm0-24H16V40A24.029,24.029,0,0,1,40,16H456a24.029,24.029,0,0,1,24,24V304ZM32,288H464V32H32V288Zm144.472-16a71.971,71.971,0,0,1,143.056,0H176.472ZM384,272H335.592a87.952,87.952,0,0,0-175.184,0H112V256h18.392l1.552-6a119.4,119.4,0,0,1,12.768-30.856l3.152-5.336-13.008-13L168.8,166.864l13,13,5.344-3.16a119.186,119.186,0,0,1,30.848-12.768L224,162.392V144h48v18.392l6,1.544A119.465,119.465,0,0,1,308.848,176.7l5.344,3.16,13-13,33.944,33.944-13,13,3.152,5.336A119.4,119.4,0,0,1,364.056,250l1.552,6H384v16ZM48,48H448V96H48V48Zm0,64H448V272H400V240H377.848a135.23,135.23,0,0,0-9.736-23.544L383.76,200.8l-56.568-56.568L311.544,159.88A134.9,134.9,0,0,0,288,150.136V128H208v22.144a134.644,134.644,0,0,0-23.544,9.744L168.808,144.24,112.24,200.808l15.648,15.656a135.23,135.23,0,0,0-9.736,23.544H96v32H48V112ZM64,64H80V80H64V64Zm32,0h16V80H96V64Zm32,0h16V80H128V64ZM240,240h16v16H240V240Zm32,0h16v16H272V240Zm-64,0h16v16H208V240ZM400,128h16v16H400V128Zm0,32h16v16H400V160Zm16-16h16v16H416V144Zm-32,0h16v16H384V144ZM80,168H96v16H80V168Zm0,32H96v16H80V200Zm16-16h16v16H96V184Zm-32,0H80v16H64V184Z"/>
</svg>
