<svg xmlns="http://www.w3.org/2000/svg" xmlns:xlink="http://www.w3.org/1999/xlink" preserveAspectRatio="xMidYMid" width="20.44" height="20" viewBox="0 0 20.44 20">
  <path d="M10.219,0.000 C4.574,0.000 -0.001,4.477 -0.001,10.000 C-0.001,15.523 4.574,20.000 10.219,20.000 C15.864,20.000 20.439,15.523 20.440,10.000 C20.439,4.477 15.864,0.000 10.219,0.000 ZM16.481,5.185 C17.478,6.424 18.103,7.958 18.182,9.633 C17.028,9.394 15.938,9.277 14.921,9.277 L14.921,9.277 L14.914,9.277 C14.096,9.277 13.328,9.349 12.604,9.475 C12.428,9.053 12.250,8.648 12.070,8.260 C13.682,7.568 15.229,6.583 16.481,5.185 ZM10.219,2.198 C12.100,2.198 13.825,2.842 15.192,3.913 C14.146,5.137 12.766,6.024 11.276,6.650 C10.229,4.669 9.217,3.251 8.525,2.384 C9.072,2.266 9.638,2.198 10.219,2.198 ZM6.697,3.011 C7.251,3.651 8.359,5.058 9.542,7.255 C7.135,7.956 4.712,8.121 3.245,8.120 C3.203,8.120 3.162,8.120 3.121,8.120 L3.120,8.120 C2.873,8.120 2.661,8.116 2.483,8.111 C3.056,5.871 4.624,4.015 6.697,3.011 ZM2.245,10.000 C2.245,9.964 2.247,9.926 2.249,9.888 C2.477,9.896 2.769,9.903 3.120,9.903 L3.122,9.903 C4.725,9.893 7.524,9.762 10.360,8.886 C10.514,9.217 10.667,9.561 10.819,9.918 C8.925,10.538 7.433,11.526 6.330,12.509 C5.267,13.456 4.550,14.393 4.131,15.019 C2.957,13.660 2.246,11.913 2.245,10.000 ZM10.219,17.803 C8.445,17.803 6.809,17.228 5.482,16.265 C5.764,15.810 6.369,14.938 7.332,14.036 C8.322,13.108 9.690,12.152 11.475,11.582 C12.082,13.247 12.631,15.150 13.050,17.292 C12.169,17.620 11.216,17.803 10.219,17.803 ZM14.732,16.417 C14.327,14.480 13.819,12.733 13.260,11.174 C13.778,11.102 14.322,11.061 14.896,11.061 L14.916,11.061 L14.918,11.061 L14.919,11.061 C15.870,11.061 16.915,11.176 18.048,11.428 C17.656,13.491 16.435,15.268 14.732,16.417 Z" class="cls-1"/>
</svg>
