<svg xmlns="http://www.w3.org/2000/svg" xmlns:xlink="http://www.w3.org/1999/xlink" preserveAspectRatio="xMidYMid" width="21.19" height="19.969" viewBox="0 0 21.19 19.969">
  <path d="M19.777,5.101 C18.830,3.531 17.544,2.288 15.920,1.372 C14.295,0.456 12.522,-0.002 10.599,-0.002 C8.676,-0.002 6.902,0.456 5.278,1.372 C3.654,2.288 2.368,3.531 1.420,5.101 C0.472,6.671 -0.002,8.385 -0.002,10.243 C-0.002,12.476 0.672,14.483 2.021,16.267 C3.368,18.050 5.110,19.284 7.245,19.969 C7.493,20.013 7.677,19.982 7.797,19.876 C7.916,19.769 7.976,19.635 7.976,19.475 C7.976,19.448 7.974,19.208 7.969,18.755 C7.964,18.301 7.962,17.906 7.962,17.568 L7.645,17.621 C7.442,17.657 7.187,17.672 6.879,17.668 C6.571,17.663 6.251,17.632 5.919,17.574 C5.588,17.516 5.280,17.383 4.994,17.174 C4.710,16.965 4.507,16.691 4.387,16.354 L4.249,16.047 C4.157,15.842 4.013,15.615 3.815,15.367 C3.617,15.117 3.417,14.948 3.214,14.860 L3.118,14.793 C3.053,14.748 2.993,14.695 2.938,14.633 C2.883,14.571 2.842,14.508 2.814,14.446 C2.786,14.384 2.809,14.333 2.883,14.292 C2.957,14.252 3.090,14.232 3.283,14.232 L3.559,14.272 C3.743,14.308 3.971,14.415 4.243,14.593 C4.514,14.770 4.737,15.002 4.912,15.286 C5.124,15.651 5.379,15.929 5.678,16.120 C5.977,16.311 6.278,16.407 6.582,16.407 C6.886,16.407 7.148,16.384 7.369,16.340 C7.589,16.296 7.797,16.229 7.990,16.140 C8.073,15.544 8.298,15.086 8.666,14.766 C8.142,14.713 7.670,14.632 7.251,14.526 C6.833,14.419 6.400,14.246 5.954,14.005 C5.508,13.765 5.137,13.467 4.843,13.111 C4.548,12.756 4.307,12.289 4.118,11.711 C3.930,11.132 3.835,10.465 3.835,9.710 C3.835,8.633 4.199,7.717 4.926,6.961 C4.585,6.152 4.617,5.245 5.022,4.240 C5.289,4.160 5.685,4.220 6.209,4.420 C6.734,4.620 7.118,4.792 7.362,4.934 C7.606,5.076 7.801,5.196 7.949,5.294 C8.805,5.063 9.688,4.947 10.599,4.947 C11.510,4.947 12.393,5.063 13.249,5.294 L13.774,4.974 C14.132,4.760 14.556,4.565 15.043,4.387 C15.531,4.209 15.904,4.160 16.162,4.240 C16.576,5.245 16.613,6.152 16.272,6.961 C16.999,7.717 17.362,8.634 17.362,9.710 C17.362,10.466 17.268,11.135 17.080,11.717 C16.891,12.300 16.647,12.767 16.348,13.118 C16.049,13.469 15.676,13.765 15.230,14.005 C14.784,14.246 14.351,14.419 13.932,14.526 C13.514,14.632 13.042,14.713 12.518,14.766 C12.996,15.166 13.235,15.798 13.235,16.660 L13.235,19.475 C13.235,19.635 13.293,19.768 13.408,19.875 C13.523,19.981 13.705,20.012 13.953,19.968 C16.088,19.284 17.829,18.050 19.177,16.266 C20.526,14.483 21.199,12.476 21.199,10.243 C21.199,8.385 20.725,6.671 19.777,5.101 Z" class="cls-1"/>
</svg>
