<svg xmlns="http://www.w3.org/2000/svg" xmlns:xlink="http://www.w3.org/1999/xlink" preserveAspectRatio="xMidYMid" width="27.406" height="23.969" viewBox="0 0 27.406 23.969">
  <path d="M26.925,12.903 C26.618,13.192 26.216,13.335 25.814,13.335 C25.413,13.335 25.012,13.192 24.704,12.903 L14.324,3.139 C13.988,2.824 13.392,2.824 13.054,3.140 L2.676,12.903 C2.063,13.480 1.068,13.480 0.455,12.903 C-0.158,12.326 -0.158,11.392 0.455,10.814 L10.834,1.052 C12.359,-0.385 15.015,-0.388 16.544,1.049 L19.634,3.956 L19.634,2.399 C19.634,1.584 20.337,0.923 21.203,0.923 C22.071,0.923 22.774,1.584 22.774,2.399 L22.774,6.910 L26.925,10.814 C27.538,11.392 27.538,12.326 26.925,12.903 ZM13.145,5.943 C13.445,5.659 13.934,5.659 14.235,5.943 L23.364,14.528 C23.508,14.663 23.590,14.848 23.590,15.041 L23.590,21.303 C23.590,22.772 22.323,23.964 20.761,23.964 L16.241,23.964 L16.241,17.379 L11.138,17.379 L11.138,23.964 L6.618,23.964 C5.056,23.964 3.790,22.772 3.790,21.303 L3.790,15.041 C3.790,14.848 3.871,14.663 4.016,14.528 L13.145,5.943 Z" class="cls-1"/>
</svg>
