<svg xmlns="http://www.w3.org/2000/svg" xmlns:xlink="http://www.w3.org/1999/xlink" preserveAspectRatio="xMidYMid" width="20.44" height="20" viewBox="0 0 20.44 20">
  <path d="M2.616,-0.001 L17.811,-0.001 C19.254,-0.001 20.435,1.045 20.435,2.566 L20.435,17.433 C20.435,18.955 19.254,20.000 17.811,20.000 L2.616,20.000 C1.173,20.000 -0.008,18.955 -0.008,17.433 L-0.008,2.566 C-0.008,1.045 1.173,-0.001 2.616,-0.001 L2.616,-0.001 ZM14.884,2.221 C14.377,2.221 13.964,2.626 13.964,3.122 L13.964,5.277 C13.964,5.772 14.377,6.178 14.884,6.178 L17.194,6.178 C17.700,6.178 18.114,5.772 18.114,5.277 L18.114,3.122 C18.114,2.626 17.700,2.221 17.194,2.221 L14.884,2.221 L14.884,2.221 ZM18.124,8.457 L16.325,8.457 C16.495,9.001 16.587,9.577 16.587,10.174 C16.587,13.500 13.742,16.197 10.233,16.197 C6.724,16.197 3.879,13.500 3.879,10.174 C3.879,9.577 3.971,9.001 4.141,8.457 L2.264,8.457 L2.264,16.907 C2.264,17.344 2.630,17.702 3.077,17.702 L17.312,17.702 C17.759,17.702 18.125,17.344 18.125,16.907 L18.125,8.457 L18.124,8.457 ZM10.233,6.064 C7.966,6.064 6.127,7.807 6.127,9.957 C6.127,12.106 7.966,13.849 10.233,13.849 C12.500,13.849 14.339,12.106 14.339,9.957 C14.339,7.807 12.501,6.064 10.233,6.064 Z" class="cls-1"/>
</svg>
