<svg xmlns="http://www.w3.org/2000/svg" xmlns:xlink="http://www.w3.org/1999/xlink" preserveAspectRatio="xMidYMid" width="20.44" height="20" viewBox="0 0 20.44 20">
  <path d="M18.941,0.000 L1.527,0.000 C0.691,0.000 0.013,0.644 0.013,1.434 L0.013,18.570 C0.013,19.357 0.691,20.000 1.527,20.000 L18.940,20.000 C19.777,20.000 20.454,19.357 20.454,18.570 L20.454,1.434 C20.454,0.644 19.777,0.000 18.941,0.000 ZM6.212,16.741 L3.124,16.741 L3.124,7.713 L6.212,7.713 L6.212,16.741 L6.212,16.741 ZM4.666,6.482 L4.645,6.482 C3.609,6.482 2.939,5.783 2.939,4.920 C2.939,4.032 3.629,3.358 4.685,3.358 C5.742,3.358 6.392,4.032 6.412,4.920 C6.413,5.783 5.743,6.482 4.666,6.482 ZM17.343,16.741 L14.261,16.741 L14.261,11.912 C14.261,10.699 13.808,9.865 12.691,9.865 C11.833,9.865 11.331,10.427 11.111,10.972 C11.030,11.157 11.008,11.427 11.008,11.699 L11.008,16.741 L7.919,16.741 C7.919,16.741 7.959,8.558 7.919,7.713 L11.008,7.713 L11.008,8.993 C11.414,8.379 12.148,7.500 13.788,7.500 C15.821,7.500 17.343,8.791 17.343,11.564 L17.343,16.741 L17.343,16.741 ZM10.990,9.023 C10.992,9.013 10.997,9.004 11.008,8.994 L11.008,9.023 L10.990,9.023 L10.990,9.023 Z" class="cls-1"/>
</svg>
