<svg xmlns="http://www.w3.org/2000/svg" width="799" height="800" viewBox="0 0 799 800">
  <path class="cls-1" d="M788.887,263.715l-39.876-39.853a35.669,35.669,0,0,0-50.541,0l-5.415,5.412c-52.675-35.1-113.884-53.629-178.046-53.792h-0.656a321.691,321.691,0,0,0-114.7,20.828l69.906-69.865a66.447,66.447,0,0,0,75.484-13.12,66.132,66.132,0,0,0,19.528-46.9,65.458,65.458,0,0,0-19.528-46.9A66.493,66.493,0,0,0,498.107,0a65.533,65.533,0,0,0-46.932,19.516,66.418,66.418,0,0,0-19.527,46.9,67.244,67.244,0,0,0,6.4,28.536L312.185,220.746l-4.266-4.264a35.67,35.67,0,0,0-50.542,0l-40.368,40.181a35.62,35.62,0,0,0,0,50.512l4.266,4.264L95.413,437.228a66.446,66.446,0,0,0-75.484,13.121A66.421,66.421,0,0,0,66.86,563.674a65.534,65.534,0,0,0,46.932-19.517,66.314,66.314,0,0,0,12.963-75.44l69.906-69.865A321.156,321.156,0,0,0,175.82,514.145c0.164,64.124,18.708,125.3,53.824,177.942l-6.728,6.724a35.917,35.917,0,0,0,0,50.676l40.04,40.017a35.67,35.67,0,0,0,50.542,0l40.04-40.017a35.917,35.917,0,0,0,0-50.676L313.5,658.8a35.67,35.67,0,0,0-50.542,0l-1.149,1.147c-57.6-93.316-55.136-214.021,7.713-304.879a34.372,34.372,0,0,0,12.963,2.46,35.649,35.649,0,0,0,25.271-10.5l40.04-40.016a35.808,35.808,0,0,0,8.041-38.212c90.91-62.813,211.685-65.437,305.057-7.708l-2.462,2.46a35.917,35.917,0,0,0,0,50.676l40.04,40.017a35.669,35.669,0,0,0,50.541,0l40.04-40.017A35.57,35.57,0,0,0,788.887,263.715ZM316.124,724.4l-28.061,28.044L260,724.4l28.061-28.044ZM482.19,51a21.976,21.976,0,1,1,0,31.161h0a21.945,21.945,0,0,1-6.4-15.58A22.232,22.232,0,0,1,482.19,51ZM82.449,513a21.977,21.977,0,1,1,0-31.16A21.974,21.974,0,0,1,82.449,513Zm199.87-203.034-28.061-28.044,28.061-28.045,13.949,13.94h0l13.948,13.941Zm441.257,7.052-28.06-28.044,28.06-28.044,28.061,28.044Z"/>
</svg>
