<svg xmlns="http://www.w3.org/2000/svg" width="46" height="60" viewBox="0 0 46 60">
  <path id="Forma_1" data-name="Forma 1" class="cls-1" d="M29.383,50.054a3.482,3.482,0,1,0,3.524,3.482A3.507,3.507,0,0,0,29.383,50.054Zm0,4.974a1.492,1.492,0,1,1,1.51-1.492A1.5,1.5,0,0,1,29.383,55.028Zm4.531-17.907a3.98,3.98,0,1,0-4.027-3.979A4.008,4.008,0,0,0,33.914,37.121Zm0-5.969a1.99,1.99,0,1,1-2.014,1.99A2,2,0,0,1,33.914,31.152ZM9.75,12.251a1.01,1.01,0,0,0,.712-0.291l2.014-1.99a0.985,0.985,0,0,0,0-1.407,1.014,1.014,0,0,0-1.424,0l-2.014,1.99a0.985,0.985,0,0,0,0,1.407A1.01,1.01,0,0,0,9.75,12.251ZM46,29.907a3.236,3.236,0,0,0-.972-2.317l-0.561-.554A4.446,4.446,0,0,0,46,23.691a4.477,4.477,0,0,0-5.075-4.437,4.317,4.317,0,0,0,.04-0.537,4.477,4.477,0,0,0-5.075-4.437,4.317,4.317,0,0,0,.04-0.537,4.477,4.477,0,0,0-5.075-4.437,4.316,4.316,0,0,0,.04-0.537,4.535,4.535,0,0,0-7.916-2.964l-0.8-.79L18.389,1.272a3.347,3.347,0,0,0-4.69,0L1.3,13.52a3.256,3.256,0,0,0,0,4.635L5.091,21.9l4.944,4.885a4.424,4.424,0,0,0-.268,7.6,1.476,1.476,0,0,0,.229.241l10.83,10.66v1.787H18.811V60H44.99V47.071H42.976V44.056A8.344,8.344,0,0,0,44.45,32.792l0.575-.568A3.236,3.236,0,0,0,46,29.907Zm-2.014-6.216a2.473,2.473,0,0,1-.943,1.937L39.5,22.135A2.521,2.521,0,0,1,43.983,23.691Zm-5.034-4.974a2.473,2.473,0,0,1-.943,1.937L34.47,17.161A2.521,2.521,0,0,1,38.949,18.717Zm-5.034-4.974a2.473,2.473,0,0,1-.943,1.937l-3.535-3.493A2.521,2.521,0,0,1,33.914,13.743ZM26.363,6.282A2.5,2.5,0,0,1,28.88,8.769a2.473,2.473,0,0,1-.943,1.937L24.4,7.213A2.53,2.53,0,0,1,26.363,6.282ZM2.726,16.749a1.28,1.28,0,0,1,0-1.822l12.4-12.248A1.3,1.3,0,0,1,15.551,2.4a1.3,1.3,0,0,1,.225-0.044,1.279,1.279,0,0,1,.536,0,0.967,0.967,0,0,1,.653.324L19.33,5.016,5.091,19.085ZM20.754,6.423L21.94,7.595l5.034,4.974,0.577,0.57,4.457,4.4,0.577,0.57,4.457,4.4,0.577,0.57,5.034,4.974L43.6,29a1.277,1.277,0,0,1,0,1.82l-0.44.436h0L31.2,43.067a1.316,1.316,0,0,1-1.843,0l-8.03-7.935h1a4.477,4.477,0,1,0,0-8.954H12.269L6.514,20.492ZM11.723,28.23l0.418-.047a0.868,0.868,0,0,1,.125-0.015H22.334a2.487,2.487,0,1,1,0,4.974H12.266A2.483,2.483,0,0,1,11.723,28.23Zm9.1,29.783V49.059h8.484A5.586,5.586,0,0,1,34.921,54.6v3.408h-14.1Zm22.151,0H36.935V54.6a7.469,7.469,0,0,0-2.481-5.545h8.522v8.954ZM43,34.224a6.385,6.385,0,0,1-1.638,8.559l-0.4.3V47.07H22.838v-2.7l-0.355-.3c-0.045-.039-0.094-0.075-0.181-0.139l-8.938-8.8h5.12l9.453,9.342a3.35,3.35,0,0,0,4.691,0Z"/>
</svg>
