<svg xmlns="http://www.w3.org/2000/svg" xmlns:xlink="http://www.w3.org/1999/xlink" preserveAspectRatio="xMidYMid" width="24.719" height="23.969" viewBox="0 0 24.719 23.969">
  <path d="M24.482,8.913 L22.628,10.733 C22.320,11.035 21.824,11.035 21.516,10.733 C21.208,10.432 21.207,9.942 21.517,9.641 L21.751,9.410 C21.746,9.407 21.743,9.407 21.741,9.407 C21.313,9.102 19.971,7.801 19.494,8.037 C19.072,8.242 18.561,7.802 18.561,7.802 L18.280,7.525 L11.099,14.583 C11.041,14.487 10.974,14.395 10.892,14.314 L9.684,13.128 C9.601,13.046 9.506,12.980 9.409,12.922 L16.589,5.864 L16.437,5.716 C16.437,5.716 16.033,5.273 16.310,4.905 C17.031,3.954 16.504,1.488 12.251,0.758 C11.667,0.657 11.562,0.537 12.125,0.346 C13.526,-0.127 16.473,-0.226 20.884,4.110 C20.884,4.110 22.660,6.133 22.434,6.990 C22.380,7.185 22.805,7.776 23.061,8.122 L23.370,7.819 C23.677,7.518 24.176,7.518 24.482,7.819 C24.789,8.121 24.788,8.611 24.482,8.913 ZM12.200,8.821 L9.140,11.828 L6.347,9.084 C5.877,9.231 5.389,9.308 4.892,9.308 C3.628,9.308 2.440,8.823 1.547,7.945 C0.130,6.554 -0.240,4.423 0.624,2.644 C0.669,2.550 0.758,2.484 0.863,2.466 C0.964,2.449 1.072,2.482 1.148,2.556 L4.088,5.445 C4.521,5.872 5.275,5.872 5.707,5.446 C5.924,5.233 6.043,4.951 6.043,4.650 C6.043,4.350 5.924,4.067 5.707,3.854 L2.768,0.964 C2.694,0.890 2.660,0.785 2.677,0.683 C2.695,0.580 2.762,0.493 2.858,0.448 C3.492,0.150 4.200,-0.006 4.905,-0.006 C6.167,-0.006 7.356,0.477 8.249,1.355 C9.503,2.588 9.946,4.420 9.407,6.074 L12.200,8.821 ZM8.202,13.567 C8.485,13.324 8.936,13.342 9.201,13.602 L10.409,14.789 C10.675,15.050 10.690,15.492 10.446,15.771 L3.289,23.618 C3.044,23.896 2.626,23.910 2.360,23.650 L0.187,21.514 C-0.079,21.253 -0.063,20.842 0.222,20.600 L8.202,13.567 ZM15.273,11.840 L18.362,14.878 C18.832,14.730 19.321,14.653 19.819,14.653 C21.082,14.653 22.270,15.137 23.163,16.016 C24.579,17.407 24.949,19.537 24.085,21.316 C24.040,21.410 23.951,21.476 23.847,21.494 C23.741,21.511 23.636,21.478 23.561,21.404 L20.622,18.515 C20.190,18.089 19.436,18.089 19.003,18.515 C18.786,18.728 18.666,19.011 18.666,19.312 C18.666,19.612 18.786,19.894 19.002,20.107 L21.941,22.997 C22.016,23.071 22.050,23.175 22.032,23.278 C22.014,23.380 21.947,23.468 21.851,23.513 C21.217,23.810 20.510,23.967 19.804,23.967 C18.542,23.967 17.353,23.484 16.460,22.606 C15.206,21.372 14.764,19.541 15.302,17.887 L12.211,14.849 L15.273,11.840 Z" class="cls-1"/>
</svg>
